# xmcd
#
# Track frame offsets:
#	150
#	13050
#	23137
#	33491
#	43850
#	56432
#	67371
#	77307
#	86586
#	92970
#	102068
#	114030
#	126394
#	140928
#
# Disc length: 2053 seconds
#
# Revision: 1
# Processed by: cddbd v1.5.2PL0 Copyright (c) Steve Scherf et al.
# Submitted via: audiograbber 1.83.01
#
DISCID=bc08030e
DTITLE=Mickey Gilley - I Miss You
DYEAR=1900
DGENRE=Country
TTITLE0=I Still Care About You
TTITLE1=Keepin' On
TTITLE2=That's How  It's Got To Be
TTITLE3=I Miss You So Much
TTITLE4=Just Out Of Reach
TTITLE5=Grapevine
TTITLE6=Fraulein
TTITLE7=No Greater Love
TTITLE8=The Boy Who Didn't Pass
TTITLE9=Ain't I Gone
TTITLE10=Black Mountain
TTITLE11=Turn Around
TTITLE12=Rocky Top
TTITLE13=CC Rider
EXTD=
EXTT0=
EXTT1=
EXTT2=
EXTT3=
EXTT4=
EXTT5=
EXTT6=
EXTT7=
EXTT8=
EXTT9=
EXTT10=
EXTT11=
EXTT12=
EXTT13=
PLAYORDER=
